HIERARCHY
ROOT Hips
{
  OFFSET 13.6774 106.653 -34.4427
  CHANNELS 6 Xposition Yposition Zposition Zrotation Xrotation Yrotation
  JOINT ToSpine
  {
    OFFSET -2.69724 7.43032 -0.144315
    CHANNELS 3 Zrotation Xrotation Yrotation
    JOINT Spine
    {
      OFFSET -0.0310711 10.7595 1.96963
      CHANNELS 3 Zrotation Xrotation Yrotation
      JOINT Spine1
      {
        OFFSET 19.9056 3.91189 0.764692
        CHANNELS 3 Zrotation Xrotation Yrotation
        JOINT Neck
        {
          OFFSET 25.9749 7.03908 -0.130764
          CHANNELS 3 Zrotation Xrotation Yrotation
          JOINT Head
          {
            OFFSET 9.52751 0.295786 -0.907742
            CHANNELS 3 Zrotation Xrotation Yrotation
            End Site
            {
              OFFSET 16.4037 0.713936 2.7358
            }
          }
        }
        JOINT LeftShoulder
        {
          OFFSET 17.7449 4.33886 11.7777
          CHANNELS 3 Zrotation Xrotation Yrotation
          JOINT LeftArm
          {
            OFFSET 0.911315 1.27913 9.80584
            CHANNELS 3 Zrotation Xrotation Yrotation
            JOINT LeftForeArm
            {
              OFFSET 28.6126 1.18197 -3.53199
              CHANNELS 3 Zrotation Xrotation Yrotation
              JOINT LeftHand
              {
                OFFSET 27.5088 0.0218783 0.327423
                CHANNELS 3 Zrotation Xrotation Yrotation
                End Site
                {
                  OFFSET 18.6038 -0.000155887 0.382096
                }
              }
            }
          }
        }
        JOINT RightShoulder
        {
          OFFSET 17.1009 2.89543 -12.2328
          CHANNELS 3 Zrotation Xrotation Yrotation
          JOINT RightArm
          {
            OFFSET 1.4228 0.178766 -10.211
            CHANNELS 3 Zrotation Xrotation Yrotation
            JOINT RightForeArm
            {
              OFFSET 28.733 1.87905 2.64907
              CHANNELS 3 Zrotation Xrotation Yrotation
              JOINT RightHand
              {
                OFFSET 27.4588 0.290562 -0.101845
                CHANNELS 3 Zrotation Xrotation Yrotation
                End Site
                {
                  OFFSET 17.8396 -0.255518 -0.000602873
                }
              }
            }
          }
        }
      }
    }
  }
  JOINT LeftUpLeg
  {
    OFFSET -5.61296 -2.22332 -10.2353
    CHANNELS 3 Zrotation Xrotation Yrotation
    JOINT LeftLeg
    {
      OFFSET 2.56703 -44.7417 -7.93097
      CHANNELS 3 Zrotation Xrotation Yrotation
      JOINT LeftFoot
      {
        OFFSET 3.16933 -46.5642 -3.96578
        CHANNELS 3 Zrotation Xrotation Yrotation
        JOINT LeftToeBase
        {
          OFFSET 0.346054 -6.02161 12.8035
          CHANNELS 3 Zrotation Xrotation Yrotation
          End Site
          {
            OFFSET 0.134235 -1.35082 5.13018
          }
        }
      }
    }
  }
  JOINT RightUpLeg
  {
    OFFSET -5.7928 -1.72406 10.6446
    CHANNELS 3 Zrotation Xrotation Yrotation
    JOINT RightLeg
    {
      OFFSET -2.57161 -44.7178 -7.85259
      CHANNELS 3 Zrotation Xrotation Yrotation
      JOINT RightFoot
      {
        OFFSET -3.10148 -46.5936 -4.03391
        CHANNELS 3 Zrotation Xrotation Yrotation
        JOINT RightToeBase
        {
          OFFSET -0.0828122 -6.13587 12.8035
          CHANNELS 3 Zrotation Xrotation Yrotation
          End Site
          {
            OFFSET -0.131328 -1.35082 5.13018
          }
        }
      }
    }
  }
}
MOTION
Frames: 21
Frame Time: 0.03333333333333333
0.0000 93.1000 0.0000 71.5997 -26.3554 -1.4564 -71.1097 -0.0201 88.0225 114.8144 71.2902 -37.4538 5.9605 22.0084 2.6808 -112.8843 27.9022 155.6270 146.7023 66.0179 -108.9985 0.8188 -10.7075 -12.3496 -68.5011 34.1101 -147.4769 30.4213 -4.9512 -97.3941 -0.2035 0.0099 -0.1138 -3.0174 7.1212 44.4570 -127.9655 2.5839 75.9892 4.0557 -3.9980 52.8903 -0.1365 0.0262 0.0143 -21.6699 23.5870 86.7436 -9.8341 64.9064 -10.9997 -1.0439 -11.9467 -1.3652 2.9079 -9.5894 10.4478 -27.3957 -16.3119 80.2798 3.4290 51.9352 4.1273 -3.1282 3.3274 -0.2744 1.1567 -15.7446 -3.2977 
0.0000 93.1000 0.0000 70.5781 -26.0949 -2.1777 -71.1243 -0.0944 88.0463 114.3668 71.4019 -37.2840 5.4366 22.0832 2.7058 -112.2791 27.5657 156.0390 147.7426 66.3907 -109.2013 1.1697 -11.2522 -12.5511 -66.9905 34.9913 -146.0145 29.1201 -4.5039 -97.6058 -0.0657 -0.3906 0.2583 -2.9701 7.2687 44.2094 -128.0563 1.8021 75.2399 4.7195 -4.6649 52.3427 0.0581 -0.4059 0.4089 -21.6563 23.3326 86.0686 -9.9956 64.5112 -11.1019 -1.4318 -11.9747 -0.9828 3.0718 -9.6997 11.0704 -28.2834 -16.1393 78.7120 2.9360 51.4415 5.0906 -4.5186 2.3514 -0.3118 1.4249 -16.6770 -3.7258 
0.0000 93.1000 0.0000 69.6697 -26.2821 -0.6795 -71.1322 -0.0793 88.0482 114.6601 71.4085 -35.7734 5.2069 22.1840 2.7250 -112.1442 28.0497 155.6662 148.4511 66.7572 -107.4974 1.1634 -11.0034 -12.5693 -66.3385 35.1894 -146.1233 28.2285 -4.8381 -98.7332 0.0701 -0.3320 0.0936 -3.0009 7.0875 44.0084 -128.3147 0.9970 75.0241 5.2011 -4.7877 52.5350 0.0421 -0.3275 0.2591 -22.1087 23.1905 85.2812 -9.3059 64.8715 -11.2604 -1.2410 -13.4785 -1.3188 2.8353 -9.7545 10.8916 -29.2214 -17.1170 77.0195 3.5675 50.8607 2.8702 -4.4793 1.0651 -0.1999 1.1553 -15.3063 -2.0293 
0.0000 93.1000 0.0000 69.5215 -26.2699 -1.0649 -71.1383 0.0203 88.0388 114.2560 71.7103 -35.6222 4.9337 21.9577 2.9085 -112.5735 28.5440 154.4285 147.5702 66.9773 -106.1187 0.6379 -11.2675 -12.9580 -66.1302 35.1814 -145.8145 28.3768 -5.2535 -98.9413 0.1775 0.1903 -0.2141 -3.0359 6.8270 43.7854 -128.2562 0.3279 75.2532 5.5230 -5.0497 52.6596 -0.3603 0.2425 -0.0477 -22.3082 23.5489 84.5240 -10.0673 65.4263 -10.6342 -0.9464 -14.6126 -2.0689 3.3106 -9.7163 11.0073 -29.7125 -17.2236 76.3749 4.2822 50.8465 1.5696 -4.7380 0.5302 0.0424 1.3326 -14.6319 -1.2209 
0.0000 93.1000 0.0000 68.4718 -25.9988 -1.9812 -71.1487 -0.0682 88.0732 113.2165 71.9588 -34.8416 4.7578 22.3493 1.9495 -113.0860 28.6716 154.2753 147.4166 67.2809 -108.0570 1.1879 -10.9773 -12.7950 -65.9948 35.0513 -145.8849 27.3920 -4.7860 -98.9975 0.0485 -0.2704 0.1334 -3.0132 6.7315 43.4041 -128.0678 -0.2461 75.2052 5.5386 -5.8572 52.1758 0.0739 -0.2620 0.2490 -22.6466 23.3902 85.0311 -9.7949 65.6196 -10.0170 -0.8497 -14.8955 -1.7147 3.2851 -10.2459 10.8790 -29.6363 -17.4427 76.6699 4.5286 50.9497 0.8191 -4.2423 -0.6788 -0.2925 1.1278 -13.3942 1.4610 
0.0000 93.1000 0.0000 68.1281 -26.1081 -1.0465 -71.1503 -0.0279 88.0667 113.4594 71.9968 -34.4156 4.1584 22.4758 1.8061 -112.2807 28.6623 154.4385 147.2746 67.1815 -108.2375 0.9085 -10.9157 -12.8420 -67.0866 35.4440 -145.5944 28.0503 -4.6074 -99.1258 -0.0681 -0.0889 -0.0542 -3.1497 6.9850 43.1781 -128.0275 -0.8757 75.4505 5.4914 -5.6701 52.4854 0.0863 -0.0408 0.0267 -22.5159 23.7657 85.4454 -10.0244 65.5860 -11.1413 -1.1795 -14.8344 -1.8695 4.1313 -11.0215 12.4929 -30.1077 -17.4837 77.0955 3.2825 50.8245 1.7698 -4.1466 -0.7630 -0.1792 0.8158 -13.6179 2.2858 
0.0000 93.1000 0.0000 68.0973 -26.1511 -2.7505 -71.1455 -0.0333 88.0649 113.0789 71.9179 -33.8839 4.4159 22.2843 1.9744 -112.4987 28.6112 154.3035 148.3356 66.8310 -110.2172 1.0627 -10.4717 -12.9464 -67.1215 35.4848 -145.9023 27.7101 -5.0166 -99.1410 -0.0540 -0.1018 -0.1107 -3.0999 7.0488 43.0015 -126.9718 -0.9472 75.9432 5.9478 -5.8930 52.7292 0.1949 -0.0582 0.0409 -23.6938 23.4576 85.8001 -9.5830 65.1562 -12.1229 -1.4597 -14.9137 -1.8211 4.2805 -13.0210 12.5950 -29.9060 -18.1426 77.1963 3.5523 50.8094 2.2771 -4.1513 -1.0120 -0.1421 1.0869 -15.4152 1.3371 
0.0000 93.1000 0.0000 68.1831 -26.2752 -2.4150 -71.1326 -0.0341 88.0500 112.9213 71.6207 -32.8802 4.1950 22.2737 2.0453 -113.3926 29.3769 155.3303 146.3190 66.5355 -110.3411 1.0778 -10.5855 -12.9996 -67.7563 35.4155 -146.8819 27.2645 -5.0142 -98.9663 0.1006 -0.0825 -0.0105 -3.1675 6.8514 42.4557 -127.4376 -1.3636 75.4333 6.5821 -6.2403 53.1541 0.3113 -0.0174 0.1966 -23.7389 23.6302 86.7814 -9.5905 65.3113 -12.1129 -1.6638 -15.5229 -1.8297 4.7357 -13.7961 11.7698 -29.5599 -18.1283 77.3679 3.4464 50.7595 1.5921 -3.2058 -1.3043 -0.1719 0.5570 -15.7143 2.2179 
0.0000 93.1000 0.0000 69.0709 -26.8055 -2.3344 -71.1275 -0.0576 88.0492 111.2438 71.8254 -32.0284 3.9239 22.4767 1.6998 -113.8321 29.1328 154.9344 144.5270 66.0076 -107.7124 1.1775 -10.9458 -13.0133 -68.1252 35.1592 -146.7898 26.8347 -4.9411 -98.8922 -0.0938 -0.1698 0.3651 -3.1494 6.7236 41.4263 -127.2335 -2.3786 76.1369 5.9495 -6.0391 53.0639 0.1547 -0.1340 0.3872 -24.3343 23.3386 87.2463 -9.8603 65.5020 -12.2336 -1.6669 -16.4162 -1.7233 4.5098 -13.7834 11.8608 -29.5488 -18.0572 77.2040 2.7502 51.5094 2.8481 -3.3135 -1.4870 -0.1311 0.6562 -15.9657 1.1600 
0.0000 93.1000 0.0000 67.6590 -26.9586 -3.5719 -71.1425 0.0085 88.0378 109.8997 71.9241 -29.9927 5.0641 22.0566 1.7277 -113.5693 28.9228 157.0855 145.4496 66.1085 -108.8585 0.7909 -10.7464 -13.1547 -68.1562 35.1036 -147.1654 27.4695 -4.8433 -98.6372 -0.0282 0.1667 0.1990 -3.1941 6.8913 41.6379 -127.4601 -1.4263 76.2306 5.5914 -5.8275 52.9525 -0.0893 0.2113 0.1379 -24.7761 23.1485 87.7158 -9.9596 65.4041 -12.1258 -2.0490 -17.6968 -2.0578 4.0118 -12.0758 11.2377 -29.5026 -18.2443 78.6378 3.2565 51.2826 2.4592 -2.5801 -1.5333 -0.0842 0.9611 -16.4615 -0.4594 
0.0000 93.1000 0.0000 68.7061 -27.1533 -3.6136 -71.1496 0.0029 88.0370 109.6387 72.0639 -30.2998 4.7242 22.1737 1.5974 -114.5367 29.3135 156.8588 144.9821 66.2339 -107.7066 0.8907 -10.4294 -13.1062 -67.7610 34.8414 -147.7297 27.3733 -4.7304 -98.6159 0.0413 0.1396 0.1675 -3.1541 6.7612 41.7274 -127.0874 -0.9947 77.0210 5.7966 -5.8123 53.1989 -0.2139 0.1765 0.2379 -24.8405 23.1754 87.9425 -9.7269 65.5352 -12.2503 -1.7788 -17.9007 -2.0751 3.3049 -10.7775 10.5432 -29.4926 -18.2887 79.0310 3.8506 50.4276 2.0665 -2.3759 -2.6737 -0.2249 1.1476 -14.7818 -2.1509 
0.0000 93.1000 0.0000 68.2403 -26.9674 -3.7217 -71.1525 0.0619 88.0225 109.0287 71.5677 -29.1862 5.0011 21.7442 1.4243 -114.9396 29.3911 156.0536 145.1650 66.4356 -107.8008 0.6358 -10.0814 -12.9056 -67.8947 34.5753 -148.0129 28.0253 -5.3859 -98.9022 -0.1396 0.4222 -0.2035 -3.1327 7.0240 42.1201 -127.2903 -0.9391 76.9518 5.5825 -5.1284 53.4675 -0.4268 0.5026 0.0581 -24.6321 23.3056 87.7966 -9.7412 65.0954 -12.6070 -1.7731 -18.5029 -2.4846 3.5295 -11.5314 12.0108 -29.3636 -18.4922 78.9527 3.5747 49.7788 5.1641 -3.2322 -2.2503 0.0395 1.0155 -15.2140 -2.3504 
0.0000 93.1000 0.0000 66.8406 -26.7804 -4.6698 -71.1545 0.0240 88.0302 109.1484 71.4765 -28.7987 4.7115 21.8469 1.3690 -114.6186 29.2558 156.2668 146.5337 66.7542 -109.8843 0.8423 -9.8136 -12.8189 -68.0289 34.7025 -147.8891 28.2480 -5.2044 -99.3302 -0.0519 0.2081 -0.1113 -3.1844 6.9792 42.3622 -127.6485 -0.7676 76.7127 5.7966 -4.9678 54.1291 -0.1841 0.2643 -0.0017 -24.5930 23.3250 87.3268 -9.7871 65.0498 -11.4094 -1.4951 -18.8971 -2.4999 3.6818 -12.0506 12.0306 -29.4072 -18.0839 79.6503 2.7763 49.8774 2.7760 -2.0089 -2.7599 -0.1306 0.9604 -14.6519 -1.7728 
0.0000 93.1000 0.0000 66.6777 -26.7653 -5.1654 -71.1535 -0.0382 88.0393 108.2916 71.2134 -28.3078 4.8619 21.9241 0.9706 -114.6525 29.1489 157.4858 146.3358 66.7624 -105.4919 1.1326 -9.8280 -12.0651 -67.2861 35.3571 -147.9490 28.4761 -5.1273 -99.0435 -0.0506 -0.1036 0.2014 -3.2044 7.1654 42.1752 -127.8378 -0.9366 76.8627 6.3640 -5.4582 54.2828 0.0342 -0.1263 0.1570 -24.9560 22.5364 87.7071 -10.0877 65.6823 -11.1648 -1.5247 -18.5919 -2.1343 3.8177 -10.7982 11.6261 -29.5758 -17.6829 80.0057 3.2348 49.3924 3.8905 -1.7621 -2.6034 -0.3220 1.2068 -14.7924 -1.6615 
0.0000 93.1000 0.0000 67.1998 -26.7126 -3.9178 -71.1560 -0.0259 88.0375 107.8329 71.1520 -28.0697 5.0665 21.7706 1.1400 -115.4271 29.1301 157.9010 145.4586 66.9024 -107.7887 0.9859 -9.7311 -12.4385 -67.2216 35.8099 -147.8021 28.4326 -5.3262 -98.9582 -0.1032 -0.0623 -0.0172 -3.2137 7.1649 42.2642 -127.8050 -0.9000 76.9782 6.6584 -5.5314 54.8079 -0.0152 -0.0672 0.1702 -25.0611 22.2899 87.9577 -9.7931 65.9390 -12.2163 -1.2512 -18.9917 -2.2076 3.2096 -10.8043 11.9229 -29.7776 -17.2052 80.0173 2.5984 48.5161 1.1047 -1.5763 -3.1103 -0.2720 0.7632 -13.9910 0.7619 
0.0000 93.1000 0.0000 67.0634 -26.6410 -4.1897 -71.1512 -0.0045 88.0248 107.4543 71.2312 -27.4776 4.5699 21.5533 1.8321 -114.5613 29.2669 158.0665 144.8257 66.8438 -107.8767 0.8287 -9.6127 -12.7910 -68.0896 36.0180 -149.2845 28.3904 -4.8001 -98.9981 -0.0859 0.0538 0.0075 -3.2440 7.2298 41.4437 -127.8295 -0.7759 76.7941 6.8989 -5.8592 54.8942 -0.2476 0.0421 0.2151 -24.6072 22.1627 87.9329 -10.4805 65.7296 -11.2542 -1.5818 -19.1298 -2.1826 3.3111 -10.9886 12.4017 -29.6744 -17.4556 79.9678 1.2861 47.7375 2.6179 -1.4115 -2.9853 -0.3080 1.0159 -13.4349 1.4051 
0.0000 93.1000 0.0000 66.8090 -26.5068 -4.4879 -71.1485 0.0141 88.0185 108.5608 71.1654 -27.8601 4.3306 21.6306 1.7298 -114.7161 29.6145 156.7313 143.7527 66.5004 -108.7497 0.7136 -9.8047 -12.7733 -68.2669 36.0905 -148.3216 27.7582 -5.0551 -99.3507 -0.1072 0.1686 0.0045 -3.2818 7.0008 41.1341 -128.0702 -0.8482 75.6826 7.0209 -5.9744 54.9375 -0.2145 0.1469 0.1507 -23.6453 21.7956 88.0413 -10.6754 66.4926 -11.0239 -1.2016 -18.7514 -2.3120 3.1171 -10.2697 12.7783 -29.5429 -17.3590 79.9712 1.2969 47.8236 2.1038 -1.4415 -2.7920 -0.2216 0.9639 -12.9850 0.1791 
0.0000 93.1000 0.0000 66.5970 -26.9145 -4.1946 -71.1575 -0.0073 88.0217 108.8497 71.0392 -28.3945 4.1725 21.8468 1.2771 -114.7057 29.2060 155.3380 146.0465 66.8249 -109.6289 0.7922 -9.7020 -12.2277 -67.1521 35.8293 -148.5207 27.5591 -4.9572 -99.0657 -0.1385 0.0302 -0.0021 -3.2396 7.0506 41.0406 -127.7502 -0.5598 76.3557 6.7167 -5.9551 55.3324 0.0567 -0.0039 0.0299 -23.8170 22.0074 88.2090 -9.8447 66.3001 -9.9795 -1.0748 -18.5220 -2.2845 3.0418 -10.7225 12.3167 -29.6696 -17.2154 81.0464 1.9469 47.9260 1.9401 -0.8140 -2.6251 -0.3415 1.2394 -13.0052 -0.8483 
0.0000 93.1000 0.0000 66.6516 -27.7417 -4.1617 -71.1574 0.1018 88.0081 108.7990 71.2884 -28.4491 4.1717 21.6612 1.2636 -114.7559 29.1416 155.5201 149.4434 66.8496 -110.8021 0.2568 -9.6248 -12.1322 -67.1787 35.8115 -149.2916 28.4166 -5.0689 -97.9834 0.2242 0.5591 -0.5495 -3.2950 6.9307 41.3338 -128.0225 -0.2102 75.8193 6.5170 -5.8539 55.7833 -0.4142 0.5767 -0.5398 -24.0613 22.0669 89.0622 -9.7421 66.1905 -10.0006 -1.2289 -18.9205 -2.7753 3.4576 -11.4557 12.9198 -29.9524 -17.0163 81.7525 1.9018 47.2371 2.3515 -0.7824 -2.8488 -0.1189 1.1918 -12.1437 0.0114 
0.0000 93.1000 0.0000 66.5523 -28.0152 -4.0675 -71.1424 0.0653 88.0066 107.7753 71.8200 -27.4658 4.5345 21.9366 1.1343 -114.8648 29.8752 156.8000 147.0586 66.7763 -108.9699 0.4551 -9.8519 -12.9988 -67.9065 35.1249 -148.2937 28.2386 -4.7835 -98.0733 -0.0287 0.4026 -0.1864 -3.2766 7.1829 41.0004 -128.2607 -0.4379 75.6872 6.5465 -5.9158 55.7670 -0.4483 0.3974 -0.4005 -23.9193 22.3056 89.1944 -9.5750 66.2343 -10.1167 -1.1050 -18.7516 -2.6820 3.1388 -11.7379 14.0935 -29.8963 -16.2506 81.7314 2.7948 46.0403 2.0267 -1.3860 -2.9991 -0.0112 0.9291 -12.4350 0.2120 
0.0000 93.1000 0.0000 66.5058 -28.7010 -5.3408 -71.1409 -0.1388 88.0365 107.5979 72.2742 -26.7230 4.8247 22.1295 1.0304 -114.9703 29.9637 156.5038 146.5572 66.5594 -109.5511 1.6075 -9.8564 -13.3721 -68.3186 35.0713 -148.1480 28.1346 -4.5164 -97.9021 -0.2706 -0.6581 0.5853 -3.2301 7.2504 40.9025 -127.2754 -1.1715 76.5861 7.5843 -5.9636 56.9294 0.3772 -0.7800 0.4009 -24.7964 22.0676 89.2735 -10.3110 65.9641 -8.4276 -0.8941 -18.7718 -1.6554 2.7505 -10.5741 14.0597 -29.5664 -16.2736 81.6810 1.7044 44.4504 1.4186 -1.9399 -1.6325 -0.5745 0.9386 -12.2360 0.6951 
